# xmcd
#
# Track frame offsets: 
#        150
#        12312
#        24757
#        39242
#        49105
#        61280
#        75032
#        88400
#        100572
#        111567
#
# Disc length: 1602 seconds
#
# Revision: 0
# Processed by: cddbd v1.4PL0 Copyright (c) Steve Scherf et al.
# Submitted via: ExactAudioCopy v0.90b4
#
DISCID=6a06400a
DTITLE=George Jones and Tammy Wynette - It Sure Was Good
DYEAR=1900
DGENRE=Country
TTITLE0=The Great Divide
TTITLE1=It Sure Was Good
TTITLE2=Those Were The Good Times
TTITLE3=We're Putting It Back Together
TTITLE4=Tattletale Eyes
TTITLE5=Golden Rings
TTITLE6=We're Gonna Hold On
TTITLE7=Two Story House
TTITLE8=(We're Not) The Jet Set
TTITLE9=We Love To Sing About Jesus
EXTD=
EXTT0=
EXTT1=
EXTT2=
EXTT3=
EXTT4=
EXTT5=
EXTT6=
EXTT7=
EXTT8=
EXTT9=
PLAYORDER=
